<?xml version="1.0" standalone="no"?>
<!DOCTYPE svg PUBLIC "-//W3C//DTD SVG 20010904//EN"
 "http://www.w3.org/TR/2001/REC-SVG-20010904/DTD/svg10.dtd">
<svg version="1.0" xmlns="http://www.w3.org/2000/svg"
 width="344.000000pt" height="344.000000pt" viewBox="0 0 344.000000 344.000000"
 preserveAspectRatio="xMidYMid meet">

<g transform="translate(0.000000,344.000000) scale(0.100000,-0.100000)"
fill="#000000" stroke="none">
<path d="M203 3260 c-13 -5 -23 -14 -23 -19 0 -5 -3 -17 -6 -26 -5 -13 175
-199 732 -756 l739 -739 -738 -738 c-405 -405 -737 -743 -737 -750 0 -17 45
-62 62 -62 7 0 345 332 750 737 l738 738 738 -738 c405 -405 743 -737 750
-737 17 0 62 45 62 62 0 7 -332 345 -737 750 l-738 738 738 738 c405 405 737
743 737 750 0 17 -45 62 -62 62 -7 0 -345 -332 -750 -737 l-738 -738 -738 738
c-405 405 -742 737 -747 736 -6 0 -20 -4 -32 -9z"/>
</g>
</svg>
