<?xml version="1.0" standalone="no"?>
<!DOCTYPE svg PUBLIC "-//W3C//DTD SVG 20010904//EN"
 "http://www.w3.org/TR/2001/REC-SVG-20010904/DTD/svg10.dtd">
<svg version="1.0" xmlns="http://www.w3.org/2000/svg"
 width="1280.000000pt" height="1280.000000pt" viewBox="0 0 1280.000000 1280.000000"
 preserveAspectRatio="xMidYMid meet">

<g transform="translate(0.000000,1280.000000) scale(0.100000,-0.100000)"
fill="#000000" stroke="none">
<path d="M6112 8795 c-11 -14 -27 -25 -36 -25 -21 0 -126 -103 -126 -124 0 -9
-6 -16 -14 -16 -14 0 -86 -86 -86 -104 0 -6 -96 -109 -213 -228 l-212 -217
-39 45 c-46 54 -152 141 -221 181 -165 96 -398 135 -587 99 -104 -20 -185 -50
-325 -118 -293 -143 -400 -248 -561 -548 -116 -216 -168 -381 -252 -797 l-57
-283 -62 -31 c-56 -28 -110 -81 -123 -121 -3 -7 -22 1 -49 19 -68 47 -111 48
-135 1 -22 -42 -14 -121 26 -259 17 -57 35 -120 40 -141 13 -46 65 -92 150
-132 57 -27 78 -31 171 -34 91 -4 113 -1 153 17 45 19 76 19 76 0 0 -16 129
-73 233 -104 55 -16 97 -34 97 -41 0 -6 -14 -51 -31 -98 -26 -72 -29 -88 -19
-101 7 -9 24 -15 38 -13 20 2 29 14 47 63 32 85 54 135 61 135 3 0 110 -22
238 -49 127 -27 256 -53 286 -58 40 -7 54 -13 52 -24 -4 -20 -163 -402 -172
-412 -4 -4 -90 8 -192 27 -267 51 -399 66 -572 66 -174 0 -304 -19 -382 -54
-42 -19 -54 -31 -63 -59 -16 -48 2 -88 70 -155 115 -113 302 -222 769 -447
382 -185 664 -306 882 -380 245 -82 331 -99 523 -99 153 -1 162 0 205 24 130
73 120 210 -27 357 -164 166 -512 404 -795 544 -90 45 -108 57 -110 79 -3 23
-10 26 -113 48 -60 12 -114 27 -119 32 -5 5 21 80 64 182 40 95 73 175 75 176
2 2 20 -14 40 -37 92 -102 253 -94 425 22 62 42 176 175 189 221 9 35 4 83
-11 102 -5 8 4 42 26 95 18 46 59 161 89 254 184 564 220 739 221 1065 1 154
-3 213 -18 282 l-18 88 42 77 c69 126 176 307 280 473 201 320 294 491 285
521 -8 23 -45 46 -45 27 0 -9 -3 -9 -12 0 -18 18 -35 15 -56 -13z m-144 -377
c-69 -111 -316 -523 -350 -584 l-26 -48 -30 65 c-17 35 -42 82 -56 105 l-25
41 98 110 c54 61 108 126 121 144 30 43 161 169 177 169 7 0 23 15 35 33 15
22 29 31 42 29 10 -2 23 1 29 7 6 6 17 11 24 11 8 0 -8 -34 -39 -82z m-1437
-464 c93 -27 175 -91 259 -202 l25 -33 50 22 c61 27 161 29 222 4 l42 -17 -58
-71 c-32 -40 -108 -138 -170 -219 -62 -82 -114 -148 -116 -148 -1 0 -26 15
-54 34 -90 61 -272 87 -324 46 -58 -46 -56 -126 6 -190 33 -34 127 -82 184
-95 l33 -7 -41 -56 c-23 -31 -79 -114 -125 -184 -46 -71 -89 -128 -96 -128
-14 0 -118 58 -236 131 -85 54 -239 167 -322 238 l-34 29 18 78 c29 122 92
299 146 409 144 292 363 426 591 359z m767 -288 c53 -43 92 -91 117 -145 l18
-42 -82 -172 c-46 -95 -138 -291 -204 -437 l-121 -265 -81 7 c-44 4 -147 16
-228 27 -81 12 -163 21 -183 21 -27 0 -35 4 -31 14 6 16 172 294 207 348 19
27 33 38 61 42 55 9 89 40 89 82 0 20 -5 44 -11 55 -9 17 1 35 64 122 112 153
305 377 325 377 9 0 36 -16 60 -34z m174 -418 c0 -149 -45 -340 -134 -570
l-29 -78 -109 0 -109 0 14 34 c30 70 185 407 265 574 50 103 87 169 92 164 5
-5 10 -61 10 -124z m-879 53 c65 -18 137 -57 137 -75 0 -5 -11 -24 -26 -43
-30 -40 -56 -42 -135 -9 -75 30 -118 62 -125 92 -14 55 35 67 149 35z m-1163
-772 c11 -21 20 -51 20 -68 0 -17 6 -31 16 -35 17 -7 34 2 134 72 34 24 65 41
68 37 4 -4 7 -73 7 -153 l0 -147 -33 -56 c-37 -65 -109 -135 -147 -145 -15 -4
-60 -4 -100 -2 -81 5 -182 46 -222 90 -32 35 -119 358 -96 358 4 0 28 -14 52
-30 24 -17 50 -30 57 -30 33 0 63 22 88 64 28 47 98 98 123 89 8 -3 23 -23 33
-44z m833 -14 c-61 -105 -181 -355 -230 -477 -25 -65 -51 -118 -57 -118 -25 0
-187 55 -241 82 -90 45 -89 44 -56 92 61 89 65 102 69 246 2 74 0 158 -5 185
l-9 50 282 0 282 0 -35 -60z m249 -53 c124 -82 195 -122 281 -157 51 -21 81
-39 79 -47 -2 -7 -41 -103 -87 -213 -46 -110 -90 -216 -98 -236 l-15 -36 -58
8 c-127 17 -524 104 -524 115 0 10 106 217 213 416 70 130 117 206 124 203 7
-2 46 -26 85 -53z m531 -223 c43 -7 77 -16 77 -20 0 -13 -26 -26 -65 -32 -22
-4 -71 -22 -108 -40 -37 -19 -66 -29 -63 -23 35 88 61 136 71 132 7 -2 46 -10
88 -17z m56 -115 c21 -15 23 -22 18 -71 l-6 -55 27 8 c86 25 128 0 100 -59
l-16 -33 29 -11 c32 -12 38 -41 16 -80 -31 -56 -141 -164 -200 -197 -146 -81
-226 -85 -297 -17 -35 34 -40 43 -40 84 0 92 88 273 173 355 24 24 70 54 103
67 71 29 64 29 93 9z m-1229 -820 c111 -7 542 -83 556 -97 4 -4 -150 -384
-159 -394 -2 -1 -57 15 -123 38 -162 54 -415 119 -491 124 -49 3 -72 11 -117
40 -129 82 -225 173 -226 212 0 28 74 57 186 72 140 19 171 20 374 5z m760
-154 c181 -78 426 -212 590 -321 419 -280 567 -444 490 -542 -38 -48 -94 -60
-242 -55 -176 7 -269 29 -328 78 -143 119 -556 367 -732 441 -43 17 -78 36
-78 41 0 8 144 357 161 390 11 20 30 16 139 -32z m-714 -295 c136 -37 237 -69
292 -92 l32 -13 -15 -37 c-9 -20 -17 -38 -19 -40 -4 -4 -363 169 -408 197 -45
27 -32 26 118 -15z m722 -293 c138 -81 363 -224 359 -229 -10 -9 -530 207
-668 278 l-66 34 19 42 18 42 108 -48 c59 -26 162 -79 230 -119z"/>
<path d="M4246 7539 c-39 -31 -49 -64 -31 -99 17 -34 44 -44 91 -36 65 13 88
96 38 135 -34 27 -64 27 -98 0z"/>
<path d="M4991 7244 c-24 -31 -24 -31 -10 -73 21 -60 100 -76 134 -28 56 80
-64 177 -124 101z"/>
<path d="M7016 7187 c-67 -36 -288 -244 -392 -368 -212 -254 -391 -619 -484
-984 -42 -167 -56 -264 -66 -467 l-7 -138 -108 -35 c-60 -19 -115 -35 -123
-35 -8 0 -16 14 -20 33 -16 88 -124 245 -183 268 -32 12 -59 -3 -67 -37 -6
-22 -11 -25 -32 -20 -38 10 -60 -1 -74 -34 -8 -20 -19 -30 -34 -30 -42 0 -61
-24 -60 -77 1 -67 38 -138 104 -202 95 -93 210 -129 312 -98 25 8 57 12 71 10
13 -3 85 15 162 41 132 43 139 44 159 28 12 -9 69 -56 126 -103 58 -47 131
-104 164 -127 57 -41 58 -42 34 -51 -14 -5 -39 -26 -56 -47 l-30 -37 -39 43
c-51 54 -78 52 -111 -8 -61 -109 -9 -315 96 -385 35 -22 145 -77 184 -90 26
-9 90 17 203 81 55 32 118 67 140 78 22 10 57 29 78 42 37 22 42 23 112 11 84
-14 423 1 554 25 43 8 86 10 100 6 46 -14 267 -32 378 -31 229 2 327 75 242
183 -28 35 -31 44 -25 86 4 26 10 93 15 150 5 56 13 108 19 115 9 11 52 212
67 317 4 25 31 169 61 321 73 375 87 489 88 704 1 170 -6 225 -33 290 -5 11
-14 40 -21 65 -18 69 -58 119 -133 168 -134 86 -321 162 -626 252 -305 90
-457 120 -603 120 -74 -1 -89 -4 -142 -33z m-173 -617 c53 -42 59 -121 21
-269 -20 -81 -23 -105 -14 -117 18 -20 48 -17 62 6 7 11 20 20 29 20 9 0 22 6
28 14 19 23 122 51 186 51 123 0 220 -90 270 -247 33 -106 33 -219 0 -382 -22
-111 -68 -282 -77 -291 -2 -2 -36 -9 -75 -15 -83 -13 -182 -2 -283 30 -82 27
-290 126 -290 138 0 5 12 35 26 67 29 63 29 107 -1 178 -17 40 -65 77 -102 77
-12 0 -41 -18 -65 -39 l-42 -39 -46 25 c-81 47 -174 111 -199 136 -27 30 -27
28 49 222 102 258 172 365 274 417 60 31 83 36 157 37 53 1 72 -3 92 -19z
m-501 -930 l87 0 -29 -62 c-33 -70 -53 -152 -48 -200 3 -28 7 -33 28 -31 14 1
36 0 49 -3 22 -5 23 -9 18 -49 l-6 -43 29 8 c35 10 75 37 109 74 l24 26 33
-68 c75 -155 219 -235 488 -271 44 -6 82 -14 85 -16 3 -3 -13 -42 -35 -87 -31
-63 -54 -94 -109 -146 -38 -35 -90 -73 -115 -84 -25 -11 -57 -25 -72 -33 -22
-11 -28 -11 -32 1 -3 7 -24 23 -48 35 -84 42 -365 240 -488 344 -78 65 -134
104 -148 105 -13 0 -86 -20 -162 -45 -77 -25 -150 -45 -162 -43 -13 1 -50 -4
-83 -11 -52 -12 -66 -11 -111 3 -81 26 -161 103 -193 188 -8 22 -6 23 33 23
39 0 41 2 44 32 l3 33 31 -16 c36 -18 78 -6 78 22 0 16 2 15 20 -1 31 -29 79
-134 87 -194 5 -31 15 -58 24 -64 11 -7 62 5 185 43 93 28 175 56 182 62 8 7
12 43 12 112 0 98 15 300 26 362 l6 31 36 -19 c27 -13 58 -18 124 -18z m202
-46 c37 -14 -1 -104 -44 -104 -43 0 -52 45 -15 84 25 27 33 30 59 20z m84
-892 l23 -15 -22 -15 c-24 -16 -34 -9 -43 31 -7 30 -7 30 42 -1z m-108 -77 c0
-79 44 -96 120 -45 l45 30 3 -37 c5 -53 -14 -120 -51 -181 -43 -72 -57 -78
-115 -52 -99 45 -134 66 -151 90 -28 39 -51 119 -51 173 l0 50 41 -52 c22 -28
46 -51 53 -51 23 0 53 29 71 69 19 43 35 46 35 6z m454 -50 c9 -34 4 -40 -52
-68 -26 -13 -68 -35 -93 -49 -78 -42 -77 -42 -66 7 9 38 16 46 56 65 25 12 66
32 91 46 56 29 56 29 64 -1z"/>
<path d="M6520 6320 c-25 -25 -26 -52 -2 -73 25 -23 58 -21 82 3 25 25 26 52
2 73 -25 23 -58 21 -82 -3z"/>
<path d="M6610 6116 c-44 -17 -100 -95 -100 -140 0 -17 7 -41 15 -53 48 -68
358 -108 454 -59 25 14 31 23 31 50 0 29 -8 42 -51 79 -65 57 -207 127 -267
132 -26 2 -63 -2 -82 -9z m172 -106 c37 -18 82 -45 100 -61 l33 -28 -78 -1
c-84 0 -203 23 -233 44 -17 13 -17 16 10 51 26 33 32 37 65 32 20 -2 66 -19
103 -37z"/>
<path d="M7149 5859 c-15 -15 -19 -28 -14 -47 10 -42 34 -72 58 -73 55 -3 73
10 83 58 13 66 -79 110 -127 62z"/>
</g>
</svg>
